REM MD5 55de17f14348cf0cbedbf04a13eb86d4
FILE "Carnage Heart Extra (Japan).bin" BINARY
  TRACK 01 MODE2/2352
    INDEX 01 00:00:00
  TRACK 02 AUDIO
    INDEX 00 09:13:27
    INDEX 01 09:15:27
  TRACK 03 AUDIO
    INDEX 00 11:30:41
    INDEX 01 11:32:41
REM LEADOUT 16:02:69
